<!--?xml version="1.0" encoding="UTF-8" standalone="no"?--><svg width="100%" height="100%" viewBox="0 0 6000 3750" version="1.1" xmlns="http://www.w3.org/2000/svg" xmlns:xlink="http://www.w3.org/1999/xlink" xml:space="preserve" xmlns:serif="http://www.serif.com/" style="fill-rule: evenodd; clip-rule: evenodd; stroke-linejoin: round; stroke-miterlimit: 2;"><path width="6000" height="3750" style="fill:#6C3CC1;" d="M0 0 L6000 0 L6000 3750 L0 3750 Z" class="useDSvzk_0"></path><path d="M2218.77,2016.67c-83.918,-0 -101.195,-57.756 -101.195,-148.091l-0,-160.926l-107.613,0l0,205.847c0,75.526 68.122,132.294 160.432,132.294c48.87,0 116.004,-22.707 116.004,-107.613l0,-230.528l-107.612,0l-0,186.595c-0,63.679 59.73,60.223 71.577,89.842c4.936,12.34 1.481,32.58 -31.593,32.58Z" style="fill:none;fill-rule:nonzero;stroke:#fff;stroke-width:18.75px;" class="useDSvzk_1"></path><path d="M2503.99,2045.8c92.31,0 167.343,-76.514 167.343,-170.798c0,-94.284 -75.033,-170.798 -167.343,-170.798c-49.363,-0 -116.498,22.214 -116.498,107.119l0,231.022l82.438,-0c10.366,1.974 23.2,3.455 34.06,3.455Zm-56.768,-306.548c28.138,7.898 73.552,48.87 108.107,104.157c45.908,73.552 60.223,148.091 31.592,165.862c-20.239,12.341 -56.274,-6.911 -91.322,-44.921l-0,-108.6c-0,-63.679 -59.73,-60.717 -71.578,-89.842c-4.936,-12.34 -1.974,-33.567 23.201,-26.656Z" style="fill:none;fill-rule:nonzero;stroke:#fff;stroke-width:18.75px;" class="useDSvzk_2"></path><path d="M2851.02,1704.7c-92.31,-0 -167.343,76.02 -167.343,170.304c-0,94.284 75.033,170.798 167.343,170.798c92.803,0 167.342,-76.514 167.342,-170.798c0,-94.284 -74.539,-170.304 -167.342,-170.304Zm83.424,304.573c-28.137,17.277 -88.854,-28.137 -134.763,-102.183c-45.908,-74.045 -60.223,-148.09 -32.086,-165.861c28.631,-17.771 88.855,28.137 134.763,102.182c46.402,73.552 60.223,148.091 32.086,165.862Z" style="fill:none;fill-rule:nonzero;stroke:#fff;stroke-width:18.75px;" class="useDSvzk_3"></path><path d="M3257.48,1707.66c55.781,34.061 60.717,80.957 29.618,134.763c-3.455,5.924 -5.923,11.354 -7.898,17.277c-2.962,-16.29 -8.392,-34.554 -17.771,-64.666c-24.188,-75.526 -82.437,-90.829 -107.613,-90.829c-25.669,-0 -57.261,9.379 -77.007,37.023l8.886,8.885c15.302,-16.784 40.971,-15.303 52.819,12.835c8.392,20.239 10.86,36.035 19.252,60.223c18.264,51.338 112.055,9.379 112.055,77.007c-0,57.756 -95.272,35.049 -95.272,97.74l0,44.428l107.613,-0l-0,-140.687c-0,-10.366 1.974,-30.605 21.226,-60.717c32.087,-50.351 103.664,-82.437 103.664,-133.282l-149.572,0Z" style="fill:none;fill-rule:nonzero;stroke:#fff;stroke-width:18.75px;" class="useDSvzk_4"></path><path d="M3530.46,1704.7c-92.31,-0 -167.343,76.02 -167.343,170.304c0,94.284 75.033,170.798 167.343,170.798c92.803,0 167.342,-76.514 167.342,-170.798c0,-94.284 -74.539,-170.304 -167.342,-170.304Zm83.424,304.573c-28.137,17.277 -88.854,-28.137 -134.762,-102.183c-45.909,-74.045 -60.224,-148.09 -32.087,-165.861c28.631,-17.771 88.855,28.137 134.763,102.182c46.402,73.552 60.224,148.091 32.086,165.862Z" style="fill:none;fill-rule:nonzero;stroke:#fff;stroke-width:18.75px;" class="useDSvzk_5"></path><path d="M3922.41,2016.67c-83.918,-0 -101.196,-57.756 -101.196,-148.091l0,-160.926l-107.612,0l-0,205.847c-0,75.526 68.122,132.294 160.431,132.294c48.87,0 116.005,-22.707 116.005,-107.613l-0,-230.528l-107.613,0l0,186.595c0,63.679 59.73,60.223 71.578,89.842c4.936,12.34 1.48,32.58 -31.593,32.58Z" style="fill:none;fill-rule:nonzero;stroke:#fff;stroke-width:18.75px;" class="useDSvzk_6"></path><style data-made-with="vivus-instant">.useDSvzk_0{stroke-dasharray:19500 19502;stroke-dashoffset:19501;animation:useDSvzk_draw_0 7200ms linear 0ms infinite,useDSvzk_fade 7200ms linear 0ms infinite;}.useDSvzk_1{stroke-dasharray:1794 1796;stroke-dashoffset:1795;animation:useDSvzk_draw_1 7200ms linear 0ms infinite,useDSvzk_fade 7200ms linear 0ms infinite;}.useDSvzk_2{stroke-dasharray:1776 1778;stroke-dashoffset:1777;animation:useDSvzk_draw_2 7200ms linear 0ms infinite,useDSvzk_fade 7200ms linear 0ms infinite;}.useDSvzk_3{stroke-dasharray:1783 1785;stroke-dashoffset:1784;animation:useDSvzk_draw_3 7200ms linear 0ms infinite,useDSvzk_fade 7200ms linear 0ms infinite;}.useDSvzk_4{stroke-dasharray:1602 1604;stroke-dashoffset:1603;animation:useDSvzk_draw_4 7200ms linear 0ms infinite,useDSvzk_fade 7200ms linear 0ms infinite;}.useDSvzk_5{stroke-dasharray:1783 1785;stroke-dashoffset:1784;animation:useDSvzk_draw_5 7200ms linear 0ms infinite,useDSvzk_fade 7200ms linear 0ms infinite;}.useDSvzk_6{stroke-dasharray:1794 1796;stroke-dashoffset:1795;animation:useDSvzk_draw_6 7200ms linear 0ms infinite,useDSvzk_fade 7200ms linear 0ms infinite;}@keyframes useDSvzk_draw{100%{stroke-dashoffset:0;}}@keyframes useDSvzk_fade{0%{stroke-opacity:1;}94.44444444444444%{stroke-opacity:1;}100%{stroke-opacity:0;}}@keyframes useDSvzk_draw_0{11.11111111111111%{stroke-dashoffset: 19501}38.88888888888889%{ stroke-dashoffset: 0;}100%{ stroke-dashoffset: 0;}}@keyframes useDSvzk_draw_1{13.425925925925924%{stroke-dashoffset: 1795}41.2037037037037%{ stroke-dashoffset: 0;}100%{ stroke-dashoffset: 0;}}@keyframes useDSvzk_draw_2{15.740740740740739%{stroke-dashoffset: 1777}43.51851851851851%{ stroke-dashoffset: 0;}100%{ stroke-dashoffset: 0;}}@keyframes useDSvzk_draw_3{18.055555555555554%{stroke-dashoffset: 1784}45.83333333333333%{ stroke-dashoffset: 0;}100%{ stroke-dashoffset: 0;}}@keyframes useDSvzk_draw_4{20.37037037037037%{stroke-dashoffset: 1603}48.148148148148145%{ stroke-dashoffset: 0;}100%{ stroke-dashoffset: 0;}}@keyframes useDSvzk_draw_5{22.685185185185183%{stroke-dashoffset: 1784}50.462962962962955%{ stroke-dashoffset: 0;}100%{ stroke-dashoffset: 0;}}@keyframes useDSvzk_draw_6{25%{stroke-dashoffset: 1795}52.77777777777778%{ stroke-dashoffset: 0;}100%{ stroke-dashoffset: 0;}}</style></svg>