<!--?xml version="1.0" encoding="UTF-8" standalone="no"?--><svg width="100%" height="100%" viewBox="0 0 6000 3750" version="1.1" xmlns="http://www.w3.org/2000/svg" xmlns:xlink="http://www.w3.org/1999/xlink" xml:space="preserve" xmlns:serif="http://www.serif.com/" style="fill-rule: evenodd; clip-rule: evenodd; stroke-linejoin: round; stroke-miterlimit: 2;"><path width="6000" height="3750" style="fill:#6400ff;" d="M0 0 L6000 0 L6000 3750 L0 3750 Z" class="IokHAjsV_0"></path><g><path d="M4216.36,1348.05c-14.069,-9.968 -33.417,-7.559 -44.614,5.553l-57.784,67.676l-129.453,-17.302l-23.963,-4.792c-5.191,-4.587 -11.405,-7.864 -18.123,-9.556c-16.742,-4.465 -32.617,0.556 -35.457,11.212c-2.839,10.655 8.432,22.909 25.181,27.373c6.666,1.874 13.684,2.126 20.468,0.732l9.764,2.472l146.746,53.87l108.339,-83.665c17.729,-13.691 17.174,-40.624 -1.104,-53.573l-0,-0l-0,-0Z" style="fill:#ffb6b6;fill-rule:nonzero;stroke:#ffb6b6;stroke-width:4.17px;" class="IokHAjsV_1"></path><g><path d="M4188.87,1307.32l-21.127,-37.572l-34.207,30.45l8.77,50.279l46.564,-43.157Z" style="fill:#ffb6b6;fill-rule:nonzero;stroke:#ffb6b6;stroke-width:4.17px;" class="IokHAjsV_2"></path><path style="fill:#ffb6b6;stroke:#ffb6b6;stroke-width:4.17px;" d="M4057.6589999999997,1264.65A53.031,53.031 0,1,1 4163.721,1264.65A53.031,53.031 0,1,1 4057.6589999999997,1264.65" class="IokHAjsV_3"></path><path d="M4123.57,1281.73l-30.634,-5.369l-4.376,-17.406c-0,-0 -27.244,38.332 -37.593,3.675c-10.348,-34.656 37.756,-63.175 52.046,-62.723c14.29,0.451 56.214,-4.518 63.626,23.466c7.413,27.984 6.161,58.555 6.161,58.555l-16.631,1.191c0,-0 -18.067,-25.746 -23.097,-20.469c-5.031,5.276 -9.502,19.08 -9.502,19.08l-0,-0Z" style="fill:#2f2e41;fill-rule:nonzero;stroke:#2f2e41;stroke-width:4.17px;" class="IokHAjsV_4"></path></g><path d="M4056.03,1744.95l-13.862,127.068l60.835,184.676c2.535,7.696 3.258,15.874 2.112,23.895c-1.852,12.965 -8.474,24.772 -18.571,33.113l-34.327,28.357c-1.92,1.586 -2.813,4.099 -2.325,6.542c0.803,4.015 4.961,6.402 8.833,5.071l43.673,-15.013c15.189,-5.221 31.139,-7.886 47.201,-7.886l8.064,-0c6.391,-0 11.572,-5.181 11.572,-11.573c0,-1.511 -0.296,-3.008 -0.871,-4.406l-15.301,-37.158l-41.585,-196.377l11.551,-66.999l-66.999,-69.31l0,0.001l0,-0.001Z" style="fill:#ffb6b6;fill-rule:nonzero;stroke:#ffb6b6;stroke-width:4.17px;" class="IokHAjsV_5"></path><path d="M4150.75,1800.4l11.552,76.24l30.034,189.446l-11.552,41.586l-47.983,39.097c-6.241,5.085 -4.417,15.056 3.221,17.602c2.063,0.688 4.293,0.698 6.363,0.031l68.433,-22.076l18.568,-6.631c8.262,-2.951 13.776,-10.776 13.776,-19.548c0,-2.548 -0.469,-5.074 -1.383,-7.452l-10.168,-26.437l-10.396,-204.463l1.155,-75.085l-71.62,-2.31l-0,-0l-0,0Z" style="fill:#ffb6b6;fill-rule:nonzero;stroke:#ffb6b6;stroke-width:4.17px;" class="IokHAjsV_6"></path><path d="M4090.81,1608.94l-12.491,-135.618c-2.476,-26.887 4.01,-54.322 18.265,-77.256l31.514,-50.556l60.814,-46.779l26.716,23.074c15.621,13.489 23.03,34.483 19.338,54.791l-26.449,145.471l4.689,56.273l-122.396,30.6l0,0Z" style="fill:#6c63ff;fill-rule:nonzero;stroke:#6c63ff;stroke-width:4.17px;" class="IokHAjsV_7"></path><path d="M4238.58,2068.4l-48.37,0l-0.168,-0.954l-48.865,-276.143l-27.355,84.252l34.813,169.426l-45.929,12.087l-70.279,-169.502c-5.677,-13.69 -6.816,-29.145 -3.205,-43.521l60.247,-239.867l122.806,-27.974l0.439,0.368c54.69,45.762 16.379,108.208 13.132,113.262l12.734,378.566l0,0l0,0Z" style="fill:#2f2e41;fill-rule:nonzero;stroke:#2f2e41;stroke-width:4.17px;" class="IokHAjsV_8"></path><path d="M4518.51,1693.66c-3.558,9.658 -9.38,18.09 -16.796,24.743c-7.417,6.678 -16.427,11.552 -26.407,14.071c-65.659,16.565 -223.107,43.341 -397.767,-20.308c-27.076,-9.889 -54.338,-19.337 -81.877,-27.885c-47.362,-14.717 -89.479,-30.474 -126.883,-46.669c-17.189,-7.439 -33.361,-14.948 -48.586,-22.525c-20.538,-10.189 -39.39,-20.447 -56.626,-30.636c-16.957,-9.98 -32.367,-19.891 -46.367,-29.595c-98.027,-67.923 -126.698,-125.264 -126.698,-125.264c-0,-0 56.233,-27.747 176.831,-32.391c17.305,-0.67 35.926,-0.855 55.91,-0.439c20.354,0.439 42.094,1.525 65.266,3.442c17.212,1.386 35.186,3.258 53.969,5.614c61.824,7.786 132.288,21.093 211.74,42.256c270.215,71.944 343.452,154.976 362.951,199.265c6.446,14.67 6.885,31.281 1.34,46.321l-0,0Z" style="fill:#e6e6e6;fill-rule:nonzero;stroke:#000;stroke-width:4.17px;" class="IokHAjsV_9"></path><path d="M4186.57,1328.52c-17.241,-0.222 -31.804,12.742 -33.581,29.892l-9.169,88.515l-116.405,59.223l-22.45,9.654c-6.877,-0.83 -13.853,-0.002 -20.344,2.418c-16.319,5.825 -26.54,18.968 -22.831,29.354c3.71,10.384 19.944,14.077 36.268,8.247c6.553,-2.24 12.473,-6.016 17.268,-11.013l9.442,-3.507l135.647,-34.879c9.802,-2.52 17.621,-9.899 20.705,-19.537l36.763,-114.884c6.827,-21.334 -8.915,-43.194 -31.313,-43.483l-0,-0l-0,-0Z" style="fill:#ffb6b6;fill-rule:nonzero;stroke:#ffb6b6;stroke-width:4.17px;" class="IokHAjsV_10"></path><path d="M3823.24,1396.77l-59.676,187.689c-16.957,-9.98 -32.367,-19.891 -46.367,-29.595l50.133,-157.655c17.305,-0.67 35.926,-0.855 55.91,-0.439l-0,0Z" style="fill:#3f3d56;fill-rule:nonzero;stroke:#000;stroke-width:4.17px;" class="IokHAjsV_11"></path><path d="M3942.48,1405.82l-73.699,231.794c-17.189,-7.439 -33.361,-14.948 -48.586,-22.525l68.316,-214.883c17.212,1.386 35.186,3.258 53.969,5.614l0,0Z" style="fill:#3f3d56;fill-rule:nonzero;stroke:#000;stroke-width:4.17px;" class="IokHAjsV_12"></path></g><path d="M4206.84,1473.05l-77.581,-16.42l23.442,-110.751c1.916,-9.056 7.245,-16.824 15.004,-21.873c7.758,-5.048 17.019,-6.767 26.076,-4.856l9.773,2.069c18.694,3.957 30.683,22.386 26.727,41.08l-23.441,110.751l-0,0l-0,0Z" style="fill:#6c63ff;fill-rule:nonzero;stroke:#6c63ff;stroke-width:4.17px;" class="IokHAjsV_13"></path><path d="M2218.77,2016.67c-83.918,-0 -101.195,-57.756 -101.195,-148.091l-0,-160.926l-107.613,0l0,205.847c0,75.526 68.122,132.294 160.432,132.294c48.87,0 116.004,-22.707 116.004,-107.613l0,-230.528l-107.612,0l-0,186.595c-0,63.679 59.73,60.223 71.577,89.842c4.936,12.34 1.481,32.58 -31.593,32.58Z" style="fill:none;fill-rule:nonzero;stroke:#fff;stroke-width:8.33px;" class="IokHAjsV_14"></path><path d="M2503.99,2045.8c92.31,0 167.343,-76.514 167.343,-170.798c0,-94.284 -75.033,-170.798 -167.343,-170.798c-49.363,-0 -116.498,22.214 -116.498,107.119l0,231.022l82.438,-0c10.366,1.974 23.2,3.455 34.06,3.455Zm-56.768,-306.548c28.138,7.898 73.552,48.87 108.107,104.157c45.908,73.552 60.223,148.091 31.592,165.862c-20.239,12.341 -56.274,-6.911 -91.322,-44.921l-0,-108.6c-0,-63.679 -59.73,-60.717 -71.578,-89.842c-4.936,-12.34 -1.974,-33.567 23.201,-26.656Z" style="fill:none;fill-rule:nonzero;stroke:#fff;stroke-width:8.33px;" class="IokHAjsV_15"></path><path d="M2851.02,1704.7c-92.31,-0 -167.343,76.02 -167.343,170.304c-0,94.284 75.033,170.798 167.343,170.798c92.803,0 167.342,-76.514 167.342,-170.798c0,-94.284 -74.539,-170.304 -167.342,-170.304Zm83.424,304.573c-28.137,17.277 -88.854,-28.137 -134.763,-102.183c-45.908,-74.045 -60.223,-148.09 -32.086,-165.861c28.631,-17.771 88.855,28.137 134.763,102.182c46.402,73.552 60.223,148.091 32.086,165.862Z" style="fill:none;fill-rule:nonzero;stroke:#fff;stroke-width:8.33px;" class="IokHAjsV_16"></path><path d="M3257.48,1707.66c55.781,34.061 60.717,80.957 29.618,134.763c-3.455,5.924 -5.923,11.354 -7.898,17.277c-2.962,-16.29 -8.392,-34.554 -17.771,-64.666c-24.188,-75.526 -82.437,-90.829 -107.613,-90.829c-25.669,-0 -57.261,9.379 -77.007,37.023l8.886,8.885c15.302,-16.784 40.971,-15.303 52.819,12.835c8.392,20.239 10.86,36.035 19.252,60.223c18.264,51.338 112.055,9.379 112.055,77.007c-0,57.756 -95.272,35.049 -95.272,97.74l0,44.428l107.613,-0l-0,-140.687c-0,-10.366 1.974,-30.605 21.226,-60.717c32.087,-50.351 103.664,-82.437 103.664,-133.282l-149.572,0Z" style="fill:none;fill-rule:nonzero;stroke:#fff;stroke-width:8.33px;" class="IokHAjsV_17"></path><path d="M3530.46,1704.7c-92.31,-0 -167.343,76.02 -167.343,170.304c0,94.284 75.033,170.798 167.343,170.798c92.803,0 167.342,-76.514 167.342,-170.798c0,-94.284 -74.539,-170.304 -167.342,-170.304Zm83.424,304.573c-28.137,17.277 -88.854,-28.137 -134.762,-102.183c-45.909,-74.045 -60.224,-148.09 -32.087,-165.861c28.631,-17.771 88.855,28.137 134.763,102.182c46.402,73.552 60.224,148.091 32.086,165.862Z" style="fill:none;fill-rule:nonzero;stroke:#fff;stroke-width:8.33px;" class="IokHAjsV_18"></path><path d="M3922.41,2016.67c-83.918,-0 -101.196,-57.756 -101.196,-148.091l0,-160.926l-107.612,0l-0,205.847c-0,75.526 68.122,132.294 160.431,132.294c48.87,0 116.005,-22.707 116.005,-107.613l-0,-230.528l-107.613,0l0,186.595c0,63.679 59.73,60.223 71.578,89.842c4.936,12.34 1.48,32.58 -31.593,32.58Z" style="fill:none;fill-rule:nonzero;stroke:#fff;stroke-width:8.33px;" class="IokHAjsV_19"></path><style data-made-with="vivus-instant">.IokHAjsV_0{stroke-dasharray:19500 19502;stroke-dashoffset:19501;animation:IokHAjsV_draw_0 7200ms linear 0ms infinite,IokHAjsV_fade 7200ms linear 0ms infinite;}.IokHAjsV_1{stroke-dasharray:782 784;stroke-dashoffset:783;animation:IokHAjsV_draw_1 7200ms linear 0ms infinite,IokHAjsV_fade 7200ms linear 0ms infinite;}.IokHAjsV_2{stroke-dasharray:204 206;stroke-dashoffset:205;animation:IokHAjsV_draw_2 7200ms linear 0ms infinite,IokHAjsV_fade 7200ms linear 0ms infinite;}.IokHAjsV_3{stroke-dasharray:334 336;stroke-dashoffset:335;animation:IokHAjsV_draw_3 7200ms linear 0ms infinite,IokHAjsV_fade 7200ms linear 0ms infinite;}.IokHAjsV_4{stroke-dasharray:396 398;stroke-dashoffset:397;animation:IokHAjsV_draw_4 7200ms linear 0ms infinite,IokHAjsV_fade 7200ms linear 0ms infinite;}.IokHAjsV_5{stroke-dasharray:979 981;stroke-dashoffset:980;animation:IokHAjsV_draw_5 7200ms linear 0ms infinite,IokHAjsV_fade 7200ms linear 0ms infinite;}.IokHAjsV_6{stroke-dasharray:907 909;stroke-dashoffset:908;animation:IokHAjsV_draw_6 7200ms linear 0ms infinite,IokHAjsV_fade 7200ms linear 0ms infinite;}.IokHAjsV_7{stroke-dasharray:780 782;stroke-dashoffset:781;animation:IokHAjsV_draw_7 7200ms linear 0ms infinite,IokHAjsV_fade 7200ms linear 0ms infinite;}.IokHAjsV_8{stroke-dasharray:1745 1747;stroke-dashoffset:1746;animation:IokHAjsV_draw_8 7200ms linear 0ms infinite,IokHAjsV_fade 7200ms linear 0ms infinite;}.IokHAjsV_9{stroke-dasharray:2083 2085;stroke-dashoffset:2084;animation:IokHAjsV_draw_9 7200ms linear 0ms infinite,IokHAjsV_fade 7200ms linear 0ms infinite;}.IokHAjsV_10{stroke-dasharray:780 782;stroke-dashoffset:781;animation:IokHAjsV_draw_10 7200ms linear 0ms infinite,IokHAjsV_fade 7200ms linear 0ms infinite;}.IokHAjsV_11{stroke-dasharray:474 476;stroke-dashoffset:475;animation:IokHAjsV_draw_11 7200ms linear 0ms infinite,IokHAjsV_fade 7200ms linear 0ms infinite;}.IokHAjsV_12{stroke-dasharray:577 579;stroke-dashoffset:578;animation:IokHAjsV_draw_12 7200ms linear 0ms infinite,IokHAjsV_fade 7200ms linear 0ms infinite;}.IokHAjsV_13{stroke-dasharray:425 427;stroke-dashoffset:426;animation:IokHAjsV_draw_13 7200ms linear 0ms infinite,IokHAjsV_fade 7200ms linear 0ms infinite;}.IokHAjsV_14{stroke-dasharray:1794 1796;stroke-dashoffset:1795;animation:IokHAjsV_draw_14 7200ms linear 0ms infinite,IokHAjsV_fade 7200ms linear 0ms infinite;}.IokHAjsV_15{stroke-dasharray:1776 1778;stroke-dashoffset:1777;animation:IokHAjsV_draw_15 7200ms linear 0ms infinite,IokHAjsV_fade 7200ms linear 0ms infinite;}.IokHAjsV_16{stroke-dasharray:1783 1785;stroke-dashoffset:1784;animation:IokHAjsV_draw_16 7200ms linear 0ms infinite,IokHAjsV_fade 7200ms linear 0ms infinite;}.IokHAjsV_17{stroke-dasharray:1602 1604;stroke-dashoffset:1603;animation:IokHAjsV_draw_17 7200ms linear 0ms infinite,IokHAjsV_fade 7200ms linear 0ms infinite;}.IokHAjsV_18{stroke-dasharray:1783 1785;stroke-dashoffset:1784;animation:IokHAjsV_draw_18 7200ms linear 0ms infinite,IokHAjsV_fade 7200ms linear 0ms infinite;}.IokHAjsV_19{stroke-dasharray:1794 1796;stroke-dashoffset:1795;animation:IokHAjsV_draw_19 7200ms linear 0ms infinite,IokHAjsV_fade 7200ms linear 0ms infinite;}@keyframes IokHAjsV_draw{100%{stroke-dashoffset:0;}}@keyframes IokHAjsV_fade{0%{stroke-opacity:1;}94.44444444444444%{stroke-opacity:1;}100%{stroke-opacity:0;}}@keyframes IokHAjsV_draw_0{11.11111111111111%{stroke-dashoffset: 19501}38.88888888888889%{ stroke-dashoffset: 0;}100%{ stroke-dashoffset: 0;}}@keyframes IokHAjsV_draw_1{11.842105263157896%{stroke-dashoffset: 783}39.61988304093567%{ stroke-dashoffset: 0;}100%{ stroke-dashoffset: 0;}}@keyframes IokHAjsV_draw_2{12.573099415204677%{stroke-dashoffset: 205}40.35087719298245%{ stroke-dashoffset: 0;}100%{ stroke-dashoffset: 0;}}@keyframes IokHAjsV_draw_3{13.30409356725146%{stroke-dashoffset: 335}41.081871345029235%{ stroke-dashoffset: 0;}100%{ stroke-dashoffset: 0;}}@keyframes IokHAjsV_draw_4{14.035087719298245%{stroke-dashoffset: 397}41.812865497076025%{ stroke-dashoffset: 0;}100%{ stroke-dashoffset: 0;}}@keyframes IokHAjsV_draw_5{14.76608187134503%{stroke-dashoffset: 980}42.54385964912281%{ stroke-dashoffset: 0;}100%{ stroke-dashoffset: 0;}}@keyframes IokHAjsV_draw_6{15.497076023391813%{stroke-dashoffset: 908}43.27485380116959%{ stroke-dashoffset: 0;}100%{ stroke-dashoffset: 0;}}@keyframes IokHAjsV_draw_7{16.228070175438596%{stroke-dashoffset: 781}44.005847953216374%{ stroke-dashoffset: 0;}100%{ stroke-dashoffset: 0;}}@keyframes IokHAjsV_draw_8{16.95906432748538%{stroke-dashoffset: 1746}44.73684210526316%{ stroke-dashoffset: 0;}100%{ stroke-dashoffset: 0;}}@keyframes IokHAjsV_draw_9{17.690058479532166%{stroke-dashoffset: 2084}45.46783625730994%{ stroke-dashoffset: 0;}100%{ stroke-dashoffset: 0;}}@keyframes IokHAjsV_draw_10{18.421052631578945%{stroke-dashoffset: 781}46.198830409356724%{ stroke-dashoffset: 0;}100%{ stroke-dashoffset: 0;}}@keyframes IokHAjsV_draw_11{19.152046783625728%{stroke-dashoffset: 475}46.92982456140351%{ stroke-dashoffset: 0;}100%{ stroke-dashoffset: 0;}}@keyframes IokHAjsV_draw_12{19.883040935672515%{stroke-dashoffset: 578}47.66081871345029%{ stroke-dashoffset: 0;}100%{ stroke-dashoffset: 0;}}@keyframes IokHAjsV_draw_13{20.6140350877193%{stroke-dashoffset: 426}48.39181286549708%{ stroke-dashoffset: 0;}100%{ stroke-dashoffset: 0;}}@keyframes IokHAjsV_draw_14{21.345029239766085%{stroke-dashoffset: 1795}49.12280701754386%{ stroke-dashoffset: 0;}100%{ stroke-dashoffset: 0;}}@keyframes IokHAjsV_draw_15{22.076023391812864%{stroke-dashoffset: 1777}49.853801169590646%{ stroke-dashoffset: 0;}100%{ stroke-dashoffset: 0;}}@keyframes IokHAjsV_draw_16{22.807017543859647%{stroke-dashoffset: 1784}50.58479532163742%{ stroke-dashoffset: 0;}100%{ stroke-dashoffset: 0;}}@keyframes IokHAjsV_draw_17{23.538011695906434%{stroke-dashoffset: 1603}51.31578947368421%{ stroke-dashoffset: 0;}100%{ stroke-dashoffset: 0;}}@keyframes IokHAjsV_draw_18{24.269005847953217%{stroke-dashoffset: 1784}52.046783625730995%{ stroke-dashoffset: 0;}100%{ stroke-dashoffset: 0;}}@keyframes IokHAjsV_draw_19{25%{stroke-dashoffset: 1795}52.77777777777778%{ stroke-dashoffset: 0;}100%{ stroke-dashoffset: 0;}}</style></svg>