<!--?xml version="1.0" encoding="UTF-8" standalone="no"?--><svg width="100%" height="100%" viewBox="0 0 2550 1042" version="1.1" xmlns="http://www.w3.org/2000/svg" xmlns:xlink="http://www.w3.org/1999/xlink" xml:space="preserve" xmlns:serif="http://www.serif.com/" style="fill-rule: evenodd; clip-rule: evenodd; stroke-linejoin: round; stroke-miterlimit: 2;"><path width="2550" height="1047.92" style="fill:#6400ff;" d="M0 0 L2550 0 L2550 1047.92 L0 1047.92 Z" class="vOXxysJC_0"></path><path d="M788.064,609.138c-52.306,-0 -63.075,-35.999 -63.075,-92.305l0,-100.304l-67.074,0l-0,128.303c-0,47.076 42.46,82.459 99.996,82.459c30.461,0 72.305,-14.153 72.305,-67.074l0,-143.688l-67.074,0l-0,116.304c-0,39.691 37.229,37.537 44.614,55.998c3.076,7.692 0.923,20.307 -19.692,20.307Z" style="fill:none;fill-rule:nonzero;stroke:#fff;stroke-width:2.08px;" class="vOXxysJC_1"></path><path d="M965.841,627.291c57.536,0 104.304,-47.691 104.304,-106.458c-0,-58.767 -46.768,-106.457 -104.304,-106.457c-30.769,-0 -72.613,13.845 -72.613,66.766l-0,143.995l51.383,0c6.461,1.231 14.461,2.154 21.23,2.154Zm-35.384,-191.07c17.538,4.923 45.845,30.46 67.382,64.921c28.615,45.844 37.538,92.304 19.692,103.381c-12.615,7.692 -35.076,-4.308 -56.921,-27.999l0,-67.69c0,-39.691 -37.229,-37.845 -44.614,-55.998c-3.077,-7.692 -1.23,-20.923 14.461,-16.615Z" style="fill:none;fill-rule:nonzero;stroke:#fff;stroke-width:2.08px;" class="vOXxysJC_2"></path><path d="M1182.14,414.683c-57.537,0 -104.304,47.383 -104.304,106.15c-0,58.767 46.767,106.458 104.304,106.458c57.844,0 104.303,-47.691 104.303,-106.458c0,-58.767 -46.459,-106.15 -104.303,-106.15Zm51.998,189.84c-17.538,10.768 -55.383,-17.538 -83.997,-63.69c-28.615,-46.153 -37.537,-92.305 -20,-103.381c17.846,-11.077 55.383,17.538 83.997,63.69c28.922,45.844 37.537,92.304 20,103.381Z" style="fill:none;fill-rule:nonzero;stroke:#fff;stroke-width:2.08px;" class="vOXxysJC_3"></path><path d="M1435.49,416.529c34.768,21.23 37.845,50.46 18.461,83.997c-2.154,3.693 -3.692,7.077 -4.923,10.769c-1.846,-10.153 -5.23,-21.537 -11.076,-40.306c-15.077,-47.075 -51.383,-56.613 -67.075,-56.613c-15.999,-0 -35.691,5.846 -47.998,23.076l5.538,5.538c9.538,-10.461 25.538,-9.538 32.922,8c5.231,12.615 6.769,22.46 12,37.537c11.384,31.999 69.843,5.846 69.843,47.998c0,35.999 -59.382,21.845 -59.382,60.921l-0,27.691l67.074,0l0,-87.689c0,-6.461 1.231,-19.076 13.231,-37.845c19.999,-31.383 64.613,-51.382 64.613,-83.074l-93.228,0Z" style="fill:none;fill-rule:nonzero;stroke:#fff;stroke-width:2.08px;" class="vOXxysJC_4"></path><path d="M1605.63,414.683c-57.536,0 -104.304,47.383 -104.304,106.15c-0,58.767 46.768,106.458 104.304,106.458c57.844,0 104.304,-47.691 104.304,-106.458c-0,-58.767 -46.46,-106.15 -104.304,-106.15Zm51.998,189.84c-17.538,10.768 -55.383,-17.538 -83.997,-63.69c-28.614,-46.153 -37.537,-92.305 -19.999,-103.381c17.845,-11.077 55.382,17.538 83.997,63.69c28.922,45.844 37.537,92.304 19.999,103.381Z" style="fill:none;fill-rule:nonzero;stroke:#fff;stroke-width:2.08px;" class="vOXxysJC_5"></path><path d="M1849.93,609.138c-52.306,-0 -63.075,-35.999 -63.075,-92.305l0,-100.304l-67.074,0l-0,128.303c-0,47.076 42.46,82.459 99.996,82.459c30.461,0 72.305,-14.153 72.305,-67.074l0,-143.688l-67.074,0l-0,116.304c-0,39.691 37.229,37.537 44.613,55.998c3.077,7.692 0.923,20.307 -19.691,20.307Z" style="fill:none;fill-rule:nonzero;stroke:#fff;stroke-width:2.08px;" class="vOXxysJC_6"></path><style data-made-with="vivus-instant">.vOXxysJC_0{stroke-dasharray:7196 7198;stroke-dashoffset:7197;animation:vOXxysJC_draw 3000ms linear 0ms forwards;}.vOXxysJC_1{stroke-dasharray:1118 1120;stroke-dashoffset:1119;animation:vOXxysJC_draw 3000ms linear 0ms forwards;}.vOXxysJC_2{stroke-dasharray:1107 1109;stroke-dashoffset:1108;animation:vOXxysJC_draw 3000ms linear 0ms forwards;}.vOXxysJC_3{stroke-dasharray:1111 1113;stroke-dashoffset:1112;animation:vOXxysJC_draw 3000ms linear 0ms forwards;}.vOXxysJC_4{stroke-dasharray:999 1001;stroke-dashoffset:1000;animation:vOXxysJC_draw 3000ms linear 0ms forwards;}.vOXxysJC_5{stroke-dasharray:1111 1113;stroke-dashoffset:1112;animation:vOXxysJC_draw 3000ms linear 0ms forwards;}.vOXxysJC_6{stroke-dasharray:1118 1120;stroke-dashoffset:1119;animation:vOXxysJC_draw 3000ms linear 0ms forwards;}@keyframes vOXxysJC_draw{100%{stroke-dashoffset:0;}}@keyframes vOXxysJC_fade{0%{stroke-opacity:1;}94.44444444444444%{stroke-opacity:1;}100%{stroke-opacity:0;}}</style></svg>