<!--?xml version="1.0" encoding="UTF-8" standalone="no"?--><svg viewBox="0 0 2550 1042" version="1.1" xmlns="http://www.w3.org/2000/svg" xmlns:xlink="http://www.w3.org/1999/xlink" xml:space="preserve" xmlns:serif="http://www.serif.com/" style="fill-rule: evenodd; clip-rule: evenodd; stroke-linejoin: round; stroke-miterlimit: 2;"><path width="auto" height="auto" style="fill:#6400ff;" d="M0 0 L2550 0 L2550 1047.92 L0 1047.92 Z" class="AMtnzNmw_0"></path><path d="M368.339,685.254c-97.391,-0 -117.443,-67.029 -117.443,-171.868l0,-186.764l-124.89,0l-0,238.897c-0,87.653 79.059,153.535 186.19,153.535c56.716,0 134.63,-26.353 134.63,-124.89l-0,-267.542l-124.891,0l0,216.554c0,73.903 69.32,69.893 83.07,104.267c5.729,14.322 1.718,37.811 -36.666,37.811Z" style="fill:none;fill-rule:nonzero;stroke:#fff;stroke-width:2.08px;" class="AMtnzNmw_1"></path><path d="M699.354,719.054c107.131,0 194.211,-88.798 194.211,-198.221c0,-109.422 -87.08,-198.221 -194.211,-198.221c-57.289,0 -135.203,25.78 -135.203,124.318l0,268.114l95.674,0c12.03,2.292 26.926,4.01 39.529,4.01Zm-65.882,-355.766c32.654,9.166 85.361,56.716 125.463,120.88c53.279,85.361 69.893,171.868 36.665,192.492c-23.488,14.323 -65.309,-8.02 -105.985,-52.133l0,-126.037c0,-73.903 -69.32,-70.465 -83.069,-104.266c-5.729,-14.322 -2.292,-38.957 26.926,-30.936Z" style="fill:none;fill-rule:nonzero;stroke:#fff;stroke-width:2.08px;" class="AMtnzNmw_2"></path><path d="M1102.1,323.185c-107.131,0 -194.211,88.226 -194.211,197.648c0,109.423 87.08,198.221 194.211,198.221c107.704,0 194.211,-88.798 194.211,-198.221c0,-109.422 -86.507,-197.648 -194.211,-197.648Zm96.819,353.475c-32.655,20.052 -103.12,-32.655 -156.4,-118.589c-53.279,-85.934 -69.893,-171.868 -37.238,-192.492c33.228,-20.624 103.121,32.655 156.4,118.589c53.852,85.361 69.893,171.868 37.238,192.492Z" style="fill:none;fill-rule:nonzero;stroke:#fff;stroke-width:2.08px;" class="AMtnzNmw_3"></path><path d="M1573.82,326.622c64.737,39.53 70.465,93.955 34.373,156.4c-4.01,6.875 -6.875,13.177 -9.166,20.052c-3.437,-18.906 -9.739,-40.103 -20.624,-75.049c-28.072,-87.653 -95.673,-105.413 -124.891,-105.413c-29.79,0 -66.456,10.885 -89.371,42.967l10.312,10.312c17.759,-19.478 47.55,-17.759 61.299,14.896c9.739,23.488 12.604,41.821 22.343,69.893c21.197,59.58 130.047,10.885 130.047,89.371c-0,67.028 -110.568,40.675 -110.568,113.433l-0,51.56l124.89,0l0,-163.274c0,-12.031 2.292,-35.52 24.635,-70.466c37.238,-58.435 120.307,-95.674 120.307,-154.682l-173.586,0Z" style="fill:none;fill-rule:nonzero;stroke:#fff;stroke-width:2.08px;" class="AMtnzNmw_4"></path><path d="M1890.63,323.185c-107.131,0 -194.211,88.226 -194.211,197.648c-0,109.423 87.08,198.221 194.211,198.221c107.704,0 194.211,-88.798 194.211,-198.221c-0,-109.422 -86.507,-197.648 -194.211,-197.648Zm96.819,353.475c-32.655,20.052 -103.121,-32.655 -156.4,-118.589c-53.279,-85.934 -69.893,-171.868 -37.238,-192.492c33.227,-20.624 103.12,32.655 156.4,118.589c53.852,85.361 69.893,171.868 37.238,192.492Z" style="fill:none;fill-rule:nonzero;stroke:#fff;stroke-width:2.08px;" class="AMtnzNmw_5"></path><path d="M2345.51,685.254c-97.392,-0 -117.443,-67.029 -117.443,-171.868l-0,-186.764l-124.891,0l0,238.897c0,87.653 79.059,153.535 186.19,153.535c56.717,0 134.63,-26.353 134.63,-124.89l0,-267.542l-124.89,0l-0,216.554c-0,73.903 69.32,69.893 83.069,104.267c5.729,14.322 1.719,37.811 -36.665,37.811Z" 
style="fill:none;fill-rule:nonzero;stroke:#fff;stroke-width:2.08px;" class="AMtnzNmw_6"></path>
<style data-made-with="vivus-instant">.AMtnzNmw_0{stroke-dasharray:7196 7198;stroke-dashoffset:7197;animation:AMtnzNmw_draw 2000ms linear 0ms forwards;}.AMtnzNmw_1{stroke-dasharray:2082 2084;stroke-dashoffset:2083;animation:AMtnzNmw_draw 2000ms linear 166ms forwards;}.AMtnzNmw_2{stroke-dasharray:2061 2063;stroke-dashoffset:2062;animation:AMtnzNmw_draw 2000ms linear 333ms forwards;}.AMtnzNmw_3{stroke-dasharray:2069 2071;stroke-dashoffset:2070;animation:AMtnzNmw_draw 2000ms linear 500ms forwards;}.AMtnzNmw_4{stroke-dasharray:1859 1861;stroke-dashoffset:1860;animation:AMtnzNmw_draw 2000ms linear 666ms forwards;}.AMtnzNmw_5{stroke-dasharray:2069 2071;stroke-dashoffset:2070;animation:AMtnzNmw_draw 2000ms linear 833ms forwards;}.AMtnzNmw_6{stroke-dasharray:2082 2084;stroke-dashoffset:2083;animation:AMtnzNmw_draw 2000ms linear 1000ms forwards;}@keyframes AMtnzNmw_draw{100%{stroke-dashoffset:0;}}@keyframes AMtnzNmw_fade{0%{stroke-opacity:1;}94.44444444444444%{stroke-opacity:1;}100%{stroke-opacity:1;}}</style></svg>