<!--?xml version="1.0" encoding="UTF-8" standalone="no"?--><svg width="100%" height="100%" viewBox="0 0 2550 1042" version="1.1" xmlns="http://www.w3.org/2000/svg" xmlns:xlink="http://www.w3.org/1999/xlink" xml:space="preserve" xmlns:serif="http://www.serif.com/" style="fill-rule: evenodd; clip-rule: evenodd; stroke-linejoin: round; stroke-miterlimit: 2;" class=""><path width="2550" height="1047.92" style="fill:#6400ff;" d="M0 0 L2550 0 L2550 1047.92 L0 1047.92 Z" class="REBBpmxk_0"></path><path d="M750.755,626.526c-56.314,0 -67.908,-43.087 -67.908,-110.48l0,-120.056l-72.214,0l0,153.568c0,56.345 45.714,98.696 107.658,98.696c32.795,0 77.846,-16.94 77.846,-80.282l-0,-171.982l-72.214,0l-0,139.206c-0,47.507 40.082,44.929 48.032,67.025c3.313,9.206 0.994,24.305 -21.2,24.305Z" style="fill:none;fill-rule:nonzero;stroke:#fff;stroke-width:2.08px;" class="REBBpmxk_1"></path><path d="M942.153,648.254c61.944,0 112.295,-57.081 112.295,-127.421c0,-70.339 -50.351,-127.421 -112.295,-127.421c-33.126,0 -78.177,16.572 -78.177,79.915l0,172.349l55.32,0c6.956,1.474 15.569,2.578 22.857,2.578Zm-38.095,-228.695c18.882,5.893 49.357,36.459 72.545,77.705c30.807,54.872 40.413,110.481 21.201,123.738c-13.582,9.207 -37.764,-5.155 -61.283,-33.512l0,-81.019c0,-47.507 -40.082,-45.297 -48.032,-67.025c-3.312,-9.207 -1.325,-25.042 15.569,-19.887Z" style="fill:none;fill-rule:nonzero;stroke:#fff;stroke-width:2.08px;" class="REBBpmxk_2"></path><path d="M1175.03,393.781c-61.945,-0 -112.296,56.713 -112.296,127.052c-0,70.34 50.351,127.421 112.296,127.421c62.276,0 112.295,-57.081 112.295,-127.421c0,-70.339 -50.019,-127.052 -112.295,-127.052Zm55.982,227.221c-18.882,12.89 -59.626,-20.991 -90.433,-76.231c-30.807,-55.241 -40.413,-110.481 -21.532,-123.739c19.213,-13.257 59.626,20.992 90.433,76.232c31.138,54.872 40.413,110.481 21.532,123.738Z" style="fill:none;fill-rule:nonzero;stroke:#fff;stroke-width:2.08px;" class="REBBpmxk_3"></path><path d="M1447.78,395.99c37.432,25.411 40.744,60.396 19.875,100.538c-2.319,4.419 -3.975,8.47 -5.3,12.889c-1.987,-12.153 -5.631,-25.779 -11.925,-48.243c-16.232,-56.345 -55.32,-67.762 -72.214,-67.762c-17.225,0 -38.426,6.997 -51.676,27.62l5.963,6.629c10.269,-12.521 27.494,-11.416 35.444,9.575c5.631,15.099 7.288,26.884 12.919,44.929c12.257,38.3 75.195,6.997 75.195,57.45c0,43.088 -63.932,26.147 -63.932,72.917l-0,33.144l72.214,0l-0,-104.956c-0,-7.734 1.325,-22.833 14.244,-45.297c21.531,-37.564 69.563,-61.501 69.563,-99.433l-100.37,0Z" style="fill:none;fill-rule:nonzero;stroke:#fff;stroke-width:2.08px;" class="REBBpmxk_4"></path><path d="M1630.97,393.781c-61.945,-0 -112.295,56.713 -112.295,127.052c-0,70.34 50.35,127.421 112.295,127.421c62.276,0 112.296,-57.081 112.296,-127.421c0,-70.339 -50.02,-127.052 -112.296,-127.052Zm55.983,227.221c-18.882,12.89 -59.626,-20.991 -90.433,-76.231c-30.807,-55.241 -40.413,-110.481 -21.532,-123.739c19.213,-13.257 59.626,20.992 90.433,76.232c31.138,54.872 40.413,110.481 21.532,123.738Z" style="fill:none;fill-rule:nonzero;stroke:#fff;stroke-width:2.08px;" class="REBBpmxk_5"></path><path d="M1893.99,626.526c-56.314,0 -67.908,-43.087 -67.908,-110.48l0,-120.056l-72.214,0l0,153.568c0,56.345 45.714,98.696 107.659,98.696c32.794,0 77.845,-16.94 77.845,-80.282l-0,-171.982l-72.214,0l-0,139.206c-0,47.507 40.082,44.929 48.032,67.025c3.313,9.206 0.994,24.305 -21.2,24.305Z" style="fill:none;fill-rule:nonzero;stroke:#fff;stroke-width:2.08px;" class="REBBpmxk_6"></path><style data-made-with="vivus-instant">.REBBpmxk_0{stroke-dasharray:7196 7198;stroke-dashoffset:7197;}.start .REBBpmxk_0{animation:REBBpmxk_draw_0 7200ms ease-in 0ms infinite,REBBpmxk_fade 7200ms linear 0ms infinite;}.REBBpmxk_1{stroke-dasharray:1294 1296;stroke-dashoffset:1295;}.start .REBBpmxk_1{animation:REBBpmxk_draw_1 7200ms ease-in 0ms infinite,REBBpmxk_fade 7200ms linear 0ms infinite;}.REBBpmxk_2{stroke-dasharray:1271 1273;stroke-dashoffset:1272;}.start .REBBpmxk_2{animation:REBBpmxk_draw_2 7200ms ease-in 0ms infinite,REBBpmxk_fade 7200ms linear 0ms infinite;}.REBBpmxk_3{stroke-dasharray:1272 1274;stroke-dashoffset:1273;}.start .REBBpmxk_3{animation:REBBpmxk_draw_3 7200ms ease-in 0ms infinite,REBBpmxk_fade 7200ms linear 0ms infinite;}.REBBpmxk_4{stroke-dasharray:1139 1141;stroke-dashoffset:1140;}.start .REBBpmxk_4{animation:REBBpmxk_draw_4 7200ms ease-in 0ms infinite,REBBpmxk_fade 7200ms linear 0ms infinite;}.REBBpmxk_5{stroke-dasharray:1272 1274;stroke-dashoffset:1273;}.start .REBBpmxk_5{animation:REBBpmxk_draw_5 7200ms ease-in 0ms infinite,REBBpmxk_fade 7200ms linear 0ms infinite;}.REBBpmxk_6{stroke-dasharray:1294 1296;stroke-dashoffset:1295;}.start .REBBpmxk_6{animation:REBBpmxk_draw_6 7200ms ease-in 0ms infinite,REBBpmxk_fade 7200ms linear 0ms infinite;}@keyframes REBBpmxk_draw{100%{stroke-dashoffset:0;}}@keyframes REBBpmxk_fade{0%{stroke-opacity:1;}94.44444444444444%{stroke-opacity:1;}100%{stroke-opacity:0;}}@keyframes REBBpmxk_draw_0{11.11111111111111%{stroke-dashoffset: 7197}52.77777777777778%{ stroke-dashoffset: 0;}100%{ stroke-dashoffset: 0;}}@keyframes REBBpmxk_draw_1{11.11111111111111%{stroke-dashoffset: 1295}52.77777777777778%{ stroke-dashoffset: 0;}100%{ stroke-dashoffset: 0;}}@keyframes REBBpmxk_draw_2{11.11111111111111%{stroke-dashoffset: 1272}52.77777777777778%{ stroke-dashoffset: 0;}100%{ stroke-dashoffset: 0;}}@keyframes REBBpmxk_draw_3{11.11111111111111%{stroke-dashoffset: 1273}52.77777777777778%{ stroke-dashoffset: 0;}100%{ stroke-dashoffset: 0;}}@keyframes REBBpmxk_draw_4{11.11111111111111%{stroke-dashoffset: 1140}52.77777777777778%{ stroke-dashoffset: 0;}100%{ stroke-dashoffset: 0;}}@keyframes REBBpmxk_draw_5{11.11111111111111%{stroke-dashoffset: 1273}52.77777777777778%{ stroke-dashoffset: 0;}100%{ stroke-dashoffset: 0;}}@keyframes REBBpmxk_draw_6{11.11111111111111%{stroke-dashoffset: 1295}52.77777777777778%{ stroke-dashoffset: 0;}100%{ stroke-dashoffset: 0;}}</style></svg>